Coordinates
version=1
nRows=13
nColumns=40
inDegrees=yes

Units are S.I. units (second, meters, Newtons, ...)
If the header above contains a line with 'inDegrees', this indicates whether rotational values are in degrees (yes) or radians (no).

endheader
time	pelvis_tilt	pelvis_list	pelvis_rotation	pelvis_tx	pelvis_ty	pelvis_tz	hip_flexion_r	hip_adduction_r	hip_rotation_r	knee_angle_r	knee_angle_r_beta	ankle_angle_r	subtalar_angle_r	mtp_angle_r	hip_flexion_l	hip_adduction_l	hip_rotation_l	knee_angle_l	knee_angle_l_beta	ankle_angle_l	subtalar_angle_l	mtp_angle_l	lumbar_extension	lumbar_bending	lumbar_rotation	arm_flex_r	arm_add_r	arm_rot_r	elbow_flex_r	pro_sup_r	wrist_flex_r	wrist_dev_r	arm_flex_l	arm_add_l	arm_rot_l	elbow_flex_l	pro_sup_l	wrist_flex_l	wrist_dev_l
      0.71500000	     -0.20373682	     -2.79796899	     -7.83478749	      0.25759079	      0.89994826	      0.26607562	    -19.05225203	     -2.34251328	    -15.93069177	     14.04497904	      0.24513113	      6.93948993	     14.85228966	      0.00000000	     26.72083126	    -10.80089466	    -25.30714819	      8.84597906	      0.15439146	     -0.98632672	     13.43319563	      0.00000000	     -2.08343386	      1.00841202	     -0.06565785	     44.44929797	    -16.01383635	     44.44929797	     74.92739502	     45.02842099	      0.00000000	      0.00000000	     44.44929797	    -16.01383635	     44.44929797	     74.92739502	     45.02842099	      0.00000000	      0.00000000
      0.72000000	     -0.06543847	     -2.56523684	     -7.96385197	      0.26544220	      0.89982093	      0.26526083	    -19.35452965	     -2.82662713	    -15.58776400	     14.47827415	      0.25269355	      6.14145145	     14.37377196	      0.00000000	     26.43672406	    -10.57463316	    -25.26786420	      9.38022229	      0.16371576	     -1.40387120	     12.71729328	      0.00000000	     -2.13246704	      0.65458071	      0.13430936	     44.44972986	    -16.01252210	     44.44972986	     74.92757980	     45.02822096	      0.00000000	      0.00000000	     44.44972986	    -16.01252210	     44.44972986	     74.92757980	     45.02822096	      0.00000000	      0.00000000
      0.72500000	      0.10709385	     -2.17469970	     -8.16449534	      0.27329840	      0.89982979	      0.26471116	    -19.62441689	     -3.46089078	    -15.11579222	     14.98086982	      0.26146550	      5.05370370	     13.26932628	      0.00000000	     26.11054030	    -10.21884966	    -25.41748061	      9.93350980	      0.17337245	     -1.99112010	     11.47395541	      0.00000000	     -2.19832038	      0.12165824	      0.48812949	     44.45066856	    -16.00966797	     44.45066856	     74.92798028	     45.02779071	      0.00000000	      0.00000000	     44.45066856	    -16.00966797	     44.45066856	     74.92798028	     45.02779071	      0.00000000	      0.00000000
      0.73000000	      0.30984968	     -1.88507761	     -8.32149510	      0.28119193	      0.90002274	      0.26406796	    -19.92400283	     -3.99118877	    -14.71440265	     15.46703264	      0.26995065	      3.90311601	     12.39059043	      0.00000000	     25.75073668	     -9.95374197	    -25.47537552	     10.51851685	      0.18358275	     -2.58078299	     10.51204775	      0.00000000	     -2.28543600	     -0.26041106	      0.77099090	     44.45145195	    -16.00728852	     44.45145195	     74.92831331	     45.02743619	      0.00000000	      0.00000000	     44.45145195	    -16.00728852	     44.45145195	     74.92831331	     45.02743619	      0.00000000	      0.00000000
      0.73500000	      0.51713052	     -1.58500298	     -8.41953574	      0.28909758	      0.90029896	      0.26325562	    -20.18769309	     -4.51699161	    -14.30238665	     16.00638276	      0.27936408	      2.66502984	     11.45680849	      0.00000000	     25.41807958	     -9.66661902	    -25.53521073	     11.16810631	      0.19492023	     -3.16825920	      9.60948606	      0.00000000	     -2.40988211	     -0.65550267	      1.06131709	     44.45215637	    -16.00515084	     44.45215637	     74.92861186	     45.02712083	      0.00000000	      0.00000000	     44.45215637	    -16.00515084	     44.45215637	     74.92861186	     45.02712083	      0.00000000	      0.00000000
      0.74000000	      0.74767894	     -1.23621136	     -8.59881539	      0.29702068	      0.90072186	      0.26281509	    -20.42768527	     -5.07473962	    -13.84091798	     16.56737430	      0.28915523	      1.24045987	     10.01450565	      0.00000000	     25.04163460	     -9.37994381	    -25.57097288	     11.84844282	      0.20679434	     -3.84273155	      8.58604595	      0.00000000	     -2.49586204	     -1.15382574	      1.47601991	     44.45326074	    -16.00180303	     44.45326074	     74.92907819	     45.02663290	      0.00000000	      0.00000000	     44.45326074	    -16.00180303	     44.45326074	     74.92907819	     45.02663290	      0.00000000	      0.00000000
      0.74500000	      0.99226018	     -0.96389960	     -8.65084540	      0.30492752	      0.90128865	      0.26197308	    -20.69731672	     -5.50461431	    -13.23649919	     17.11983935	      0.29879756	     -0.20840413	      8.66132953	      0.00000000	     24.65870034	     -9.08910489	    -25.53423493	     12.46151720	      0.21749450	     -4.43437228	      7.77428345	      0.00000000	     -2.68145178	     -1.47191932	      1.84413832	     44.45474970	    -15.99729620	     44.45474970	     74.92970367	     45.02598716	      0.00000000	      0.00000000	     44.45474970	    -15.99729620	     44.45474970	     74.92970367	     45.02598716	      0.00000000	      0.00000000
      0.75000000	      1.25074694	     -0.68188328	     -8.66887455	      0.31288027	      0.90194116	      0.26108156	    -20.87240615	     -6.01169240	    -13.02663596	     17.84676449	      0.31148480	     -1.84506228	      7.74309456	      0.00000000	     24.32985239	     -8.83126417	    -25.60539878	     13.26673485	      0.23154820	     -4.95836948	      7.06126527	      0.00000000	     -2.85326263	     -1.83074108	      2.10024330	     44.45540491	    -15.99531563	     44.45540491	     74.92997766	     45.02570755	      0.00000000	      0.00000000	     44.45540491	    -15.99531563	     44.45540491	     74.92997766	     45.02570755	      0.00000000	      0.00000000
      0.75500000	      1.45605793	     -0.33505866	     -8.69606829	      0.32079311	      0.90249965	      0.26031785	    -20.92200131	     -6.51565459	    -12.63350999	     18.67571096	      0.32595265	     -3.50320555	      5.98554570	      0.00000000	     24.05181179	     -8.50600763	    -25.57366465	     14.04723202	      0.24517045	     -5.49790724	      6.33854320	      0.00000000	     -2.92799080	     -2.27308357	      2.47856626	     44.45672103	    -15.99134186	     44.45672103	     74.93052583	     45.02515390	      0.00000000	      0.00000000	     44.45672103	    -15.99134186	     44.45672103	     74.93052583	     45.02515390	      0.00000000	      0.00000000
      0.76000000	      1.75816879	     -0.14529639	     -8.71129131	      0.32868068	      0.90349936	      0.25960463	    -21.11193627	     -6.82599854	    -12.12058549	     19.36337717	      0.33795469	     -5.47145972	      4.31350209	      0.00000000	     23.62550524	     -8.33252768	    -25.49462777	     14.78938414	      0.25812345	     -5.93761305	      5.70718640	      0.00000000	     -3.18193205	     -2.47986329	      2.89381142	     44.46066861	    -15.97946149	     44.46066861	     74.93215185	     45.02355774	      0.00000000	      0.00000000	     44.46066861	    -15.97946149	     44.46066861	     74.93215185	     45.02355774	      0.00000000	      0.00000000
      0.76500000	      1.97290421	      0.18981329	     -8.61195437	      0.33661862	      0.90419594	      0.25854839	    -21.02076225	     -7.37000080	    -12.15021589	     20.45611078	      0.35702649	     -7.29571928	      3.14775928	      0.00000000	     23.37179556	     -7.97981742	    -25.43277229	     15.62134728	      0.27264394	     -6.29267801	      5.13911801	      0.00000000	     -3.26835681	     -2.88080485	      3.10698111	     44.46156486	    -15.97677202	     44.46156486	     74.93251736	     45.02320801	      0.00000000	      0.00000000	     44.46156486	    -15.97677202	     44.46156486	     74.93251736	     45.02320801	      0.00000000	      0.00000000
      0.77000000	      2.19673158	      0.52168798	     -8.55622708	      0.34451893	      0.90496910	      0.25764114	    -20.82641681	     -7.94458462	    -12.22317917	     21.71027433	      0.37891577	     -9.23504481	      1.74080211	      0.00000000	     23.06970664	     -7.63221251	    -25.37292922	     16.41484956	      0.28649317	     -6.55054588	      4.52285527	      0.00000000	     -3.32679684	     -3.19689860	      3.26183051	     44.46242168	    -15.97420348	     44.46242168	     74.93286558	     45.02287779	      0.00000000	      0.00000000	     44.46242168	    -15.97420348	     44.46242168	     74.93286558	     45.02287779	      0.00000000	      0.00000000
      0.77500000	      2.36948275	      0.80589246	     -8.35393522	      0.35236770	      0.90567810	      0.25641636	    -20.57838862	     -8.36920833	    -12.21622175	     23.01207146	      0.40163641	    -10.98317971	      0.30583977	      0.00000000	     22.83789390	     -7.25232436	    -25.08954675	     17.14474604	      0.29923227	     -6.75646045	      4.03150740	      0.00000000	     -3.44957540	     -3.63093395	      3.47198315	     44.46341323	    -15.97123451	     44.46341323	     74.93326696	     45.02250102	      0.00000000	      0.00000000	     44.46341323	    -15.97123451	     44.46341323	     74.93326696	     45.02250102	      0.00000000	      0.00000000
